<svg width="21.693359" height="20.000000" viewBox="0 0 21.6934 20" fill="none" xmlns="http://www.w3.org/2000/svg" xmlns:xlink="http://www.w3.org/1999/xlink">
	<desc>
			Created with Pixso.
	</desc>
	<defs/>
	<path id="Vector" d="M3.3252 0.599609L9.52539 8.69922C10.2246 9.5 10.2246 10.6992 9.52539 11.3008L3.3252 19.4004C2.9248 19.8008 2.4248 20 1.9248 20C1.4248 20 0.924805 19.8008 0.525391 19.4004C-0.174805 18.5996 -0.174805 17.4004 0.525391 16.5996L5.4248 10L0.525391 3.40039C-0.174805 2.59961 -0.174805 1.40039 0.525391 0.599609C0.924805 0.199219 1.4248 0 1.9248 0C2.4248 0 2.9248 0.199219 3.3252 0.599609ZM18.3682 0.599609L12.168 8.69922C11.4678 9.5 11.4678 10.6992 12.168 11.3008L18.3682 19.4004C18.7676 19.8008 19.2676 20 19.7676 20C20.2676 20 20.7676 19.8008 21.168 19.4004C21.8682 18.5996 21.8682 17.4004 21.168 16.5996L16.2676 10L21.168 3.40039C21.8682 2.59961 21.8682 1.40039 21.168 0.599609C20.7676 0.199219 20.2676 0 19.7676 0C19.2676 0 18.7676 0.199219 18.3682 0.599609Z" fill="#7772F1" fill-opacity="1.000000" fill-rule="evenodd"/>
</svg>
