<svg width="104.500000" height="19.599609" viewBox="0 0 104.5 19.5996" fill="none" xmlns="http://www.w3.org/2000/svg" xmlns:xlink="http://www.w3.org/1999/xlink">
	<desc>
			Created with Pixso.
	</desc>
	<defs/>
	<path id="Vector" d="M0 9.80078C0 3.69922 3.2998 0 8.7002 0C12.7998 0 16.0996 2.5 16.7002 6.19922C16.7998 6.59961 16.5 6.90039 16.0996 6.90039L13.5 6.90039C13.2002 6.90039 13 6.69922 12.9004 6.40039C12.4004 4.5 10.7998 3.30078 8.7002 3.30078C5.7998 3.30078 4 5.80078 4 9.80078C4 13.8008 5.7998 16.3008 8.7998 16.3008C10.9004 16.3008 12.4004 15.1992 13 13.4004C13.0996 13.0996 13.2998 12.9004 13.5996 12.9004L16.2002 12.9004C16.5996 12.9004 16.9004 13.3008 16.7998 13.5996C16.2002 17.1992 13 19.5996 8.7998 19.5996C3.2998 19.5996 0 15.8008 0 9.80078ZM79 18.4004L79 4.20117C79 3.90039 78.7998 3.70117 78.5 3.70117L74.1006 3.70117C73.7002 3.70117 73.2998 3.40039 73.2998 2.90039L73.2998 1.20117C73.2998 0.800781 73.6006 0.400391 74.1006 0.400391L87.7002 0.400391C88.0996 0.400391 88.5 0.701172 88.5 1.20117L88.5 2.90039C88.5 3.30078 88.2002 3.70117 87.7002 3.70117L83.2998 3.70117C83 3.70117 82.7998 3.90039 82.7998 4.20117L82.7998 18.5C82.7998 18.9004 82.5 19.2012 82.0996 19.2012L79.6006 19.2012C79.2998 19.1016 79 18.8008 79 18.4004ZM21.3994 19.0996L24.2998 19.0996C24.5996 19.0996 24.8994 18.9004 24.7998 18.7012L24.7998 12.8008C24.7998 12.5 25 12.3008 25.2998 12.3008L27.5996 12.3008C27.8994 12.3008 28.1992 12.4004 28.2998 12.7012L31.1992 18.7012C31.2998 18.9004 31.5 19 31.6992 19L35 19C35.2998 19 35.5996 18.5996 35.3994 18.3008L32.2998 12.4004C32.0996 12.0996 32.1992 11.5996 32.5996 11.4004C34.2998 10.4004 35.2998 8.5 35.2998 6.40039C35.2998 2.80078 32.7998 0.5 28.6992 0.5L21.6992 0.5C21.2998 0.5 20.8994 0.900391 20.8994 1.30078L20.8994 18.5996C20.8994 18.9004 21.0996 19.0996 21.3994 19.0996ZM51.5 19.0996L40.5 19.0996C40.0996 19.0996 39.7998 18.8008 39.7998 18.4004L39.7998 1.20117C39.7998 0.800781 40.0996 0.5 40.5 0.5L51.5 0.5C51.8994 0.5 52.2002 0.800781 52.2002 1.20117L52.2002 3.09961C52.2002 3.5 51.8994 3.80078 51.5 3.80078L44.2002 3.80078C43.8994 3.80078 43.7002 4 43.7002 4.30078L43.7002 7.70117C43.7002 8 43.8994 8.20117 44.2002 8.20117L51 8.20117C51.3994 8.20117 51.7002 8.5 51.7002 8.90039L51.7002 10.5996C51.7002 11 51.3994 11.3008 51 11.3008L44.2002 11.3008C43.8994 11.3008 43.7002 11.5 43.7002 11.8008L43.7002 15.5996C43.7002 15.9004 43.8994 16.0996 44.2002 16.0996L51.5 16.0996C51.8994 16.0996 52.2002 16.4004 52.2002 16.8008L52.2002 18.7012C52.2002 18.8008 51.8994 19.0996 51.5 19.0996ZM61.2998 14.5996L67 14.5996C67.2002 14.5996 67.5 14.8008 67.5 15L68.5996 18.7012C68.7002 18.9004 68.9004 19.0996 69.2002 19.0996L72.0996 19.0996C72.5 19.0996 72.7998 18.7012 72.7002 18.3008L66.7002 0.900391C66.5996 0.701172 66.4004 0.5 66.0996 0.5L62.4004 0.5C62.0996 0.5 61.9004 0.701172 61.7998 0.900391L55.7998 18.3008C55.7002 18.7012 56 19.0996 56.4004 19.0996L59 19.0996C59.2998 19.0996 59.5 19 59.5996 18.7012L60.7002 15C60.7998 14.8008 61 14.5996 61.2998 14.5996ZM92.7998 19.0996L103.8 19.0996C104.2 19.0996 104.5 18.8008 104.5 18.7012L104.5 16.8008C104.5 16.4004 104.2 16.0996 103.8 16.0996L96.5 16.0996C96.2002 16.0996 96 15.9004 96 15.5996L96 11.8008C96 11.5 96.2002 11.3008 96.5 11.3008L103.3 11.3008C103.7 11.3008 104 11 104 10.5996L104 8.90039C104 8.5 103.7 8.20117 103.3 8.20117L96.5 8.20117C96.2002 8.20117 96 8 96 7.70117L96 4.30078C96 4 96.2002 3.80078 96.5 3.80078L103.8 3.80078C104.2 3.80078 104.5 3.5 104.5 3.09961L104.5 1.20117C104.5 0.800781 104.2 0.5 103.8 0.5L92.7998 0.5C92.3994 0.5 92.0996 0.800781 92.0996 1.20117L92.0996 18.4004C92.0996 18.8008 92.3994 19.0996 92.7998 19.0996ZM25.3994 9.40039C25.0996 9.40039 24.8994 9.20117 24.8994 8.90039L25 8.90039L25 4.09961C25 3.80078 25.1992 3.59961 25.5 3.59961L28.3994 3.59961C30.2998 3.59961 31.5 4.70117 31.5 6.5C31.5 8.30078 30.3994 9.40039 28.3994 9.40039L25.3994 9.40039ZM66.2002 11.7012L62.0996 11.7012C61.9004 11.7012 61.7998 11.5 61.9004 11.3008L64.0996 4.30078L64.2998 4.30078L66.5 11.3008C66.5 11.5 66.4004 11.7012 66.2002 11.7012Z" fill="#FFFFFF" fill-opacity="1.000000" fill-rule="evenodd"/>
</svg>
