<svg width="9.333008" height="14.771484" viewBox="0 0 9.33301 14.7715" fill="none" xmlns="http://www.w3.org/2000/svg" xmlns:xlink="http://www.w3.org/1999/xlink">
	<desc>
			Created with Pixso.
	</desc>
	<defs/>
	<path id="Rectangle (Stroke)" d="M2.33301 1.33398C1.78125 1.33398 1.33301 1.78125 1.33301 2.33398L1.33301 12.4375C1.33301 12.9902 1.78125 13.4375 2.33301 13.4375L7 13.4375C7.55273 13.4375 8 12.9902 8 12.4375L8 2.33398C8 1.78125 7.55273 1.33398 7 1.33398L6.94434 1.33398L6.78223 1.72266C6.67871 1.9707 6.43555 2.13281 6.16699 2.13281L3.16699 2.13281C2.89746 2.13281 2.65527 1.9707 2.55176 1.72266L2.38867 1.33398L2.33301 1.33398ZM0 2.33398C0 1.04492 1.04492 0 2.33301 0L7 0C8.28906 0 9.33301 1.04492 9.33301 2.33398L9.33301 12.4375C9.33301 13.7266 8.28906 14.7715 7 14.7715L2.33301 14.7715C1.04492 14.7715 0 13.7266 0 12.4375L0 2.33398Z" fill="#FFFFFF" fill-opacity="1.000000" fill-rule="evenodd"/>
</svg>
