<svg width="14.333008" height="11.333984" viewBox="0 0 14.333 11.334" fill="none" xmlns="http://www.w3.org/2000/svg" xmlns:xlink="http://www.w3.org/1999/xlink">
	<desc>
			Created with Pixso.
	</desc>
	<defs/>
	<path id="Union" d="M14.333 9.33398L14.333 2C14.333 0.894531 13.4375 0 12.333 0L2 0C0.895508 0 0 0.894531 0 2L0 9.33398C0 10.4375 0.895508 11.334 2 11.334L12.333 11.334C13.4375 11.334 14.333 10.4375 14.333 9.33398ZM13 3.50586L13 9.33398C13 9.70117 12.7012 10 12.333 10L2 10C1.63184 10 1.33301 9.70117 1.33301 9.33398L1.33301 3.50586L6.04199 6.70898C6.7207 7.16992 7.6123 7.16992 8.29102 6.70898L13 3.50586ZM12.9922 1.89844C12.9434 1.57812 12.667 1.33398 12.333 1.33398L2 1.33398C1.66602 1.33398 1.38965 1.57812 1.34082 1.89844L6.79199 5.60547C7.01855 5.75977 7.31543 5.75977 7.54199 5.60547L12.9922 1.89844Z" fill="#FFFFFF" fill-opacity="1.000000" fill-rule="evenodd"/>
</svg>
